# xmcd CD database file
#
# Track frame offsets:
#	150
#	16622
#	39665
#	63098
#	82003
#	102514
#	125151
#	153614
#	175334
#	202248
#
# Disc length: 2925 seconds
#
# Revision: 0
# Processed by: cddbd v1.5.2PL0 Copyright (c) Steve Scherf et al.
# Submitted via: CDex 1.51
#
DISCID=890b6b0a
DTITLE=Brett Dennen - So much more
DYEAR=2007
DGENRE=Blues
TTITLE0=Ain't no reason 
TTITLE1=There is so much more
TTITLE2=Darlin' do not fear 
TTITLE3=Because you are a woman
TTITLE4=She's mine
TTITLE5=The one who loves you the most
TTITLE6=I asked when
TTITLE7=When you feel it
TTITLE8=So long sweet misery
TTITLE9=Someday
EXTD=YEAR: 2007
EXTT0=
EXTT1=
EXTT2=
EXTT3=
EXTT4=
EXTT5=
EXTT6=
EXTT7=
EXTT8=
EXTT9=
PLAYORDER=
